<svg xmlns="http://www.w3.org/2000/svg" viewBox="0 0 44.55 44.55"><defs><style>.cls-1{fill:#fff;}</style></defs><title>Recurso 1</title><g id="Capa_2" data-name="Capa 2"><g id="Capa_1-2" data-name="Capa 1"><path class="cls-1" d="M22.27,10.66a7.7,7.7,0,0,0-6.56,11.76l6.67,10.75,6.5-10.86a7.71,7.71,0,0,0-6.62-11.66Zm0,12.34a4.62,4.62,0,1,1,4.62-4.62A4.62,4.62,0,0,1,22.27,23Z"/><path class="cls-1" d="M22.27,15.28a3.09,3.09,0,1,0,3.09,3.09A3.1,3.1,0,0,0,22.27,15.28Z"/><path class="cls-1" d="M22.27,0A22.27,22.27,0,1,0,44.55,22.27,22.27,22.27,0,0,0,22.27,0Zm7.94,23.11L23.06,35a.77.77,0,0,1-.65.37h0a.77.77,0,0,1-.65-.36L14.41,23.23a9.25,9.25,0,1,1,15.81-.12Z"/></g></g></svg>