<svg xmlns="http://www.w3.org/2000/svg" viewBox="0 0 82.25 74.92"><defs><style>.cls-1{fill:#fff;}</style></defs><title>Recurso 10</title><g id="Capa_2" data-name="Capa 2"><g id="Capa_1-2" data-name="Capa 1"><path class="cls-1" d="M62.93,17.66c0,2.49-1.81,4-3.14,5.12-.5.42-1.44,1.19-1.43,1.48a2,2,0,0,1-2,2h0a2,2,0,0,1-2-2c0-2.21,1.59-3.53,2.89-4.62,1-.85,1.68-1.45,1.68-2a2,2,0,0,0-4,0,2,2,0,0,1-4.08,0,6.1,6.1,0,0,1,12.19,0Zm-6.56,10.5a2,2,0,0,0-2,2v0a2,2,0,0,0,2,2,2,2,0,0,0,0-4.09ZM15.27,42.37a2,2,0,0,0,0,4.08h.17a2,2,0,1,0,0-4.08Zm7.09,0a2,2,0,0,0,0,4.08h.17a2,2,0,0,0,0-4.08ZM82.25,9.8v23a9.8,9.8,0,0,1-9.79,9.85H44.71c-.37,0-.79,0-1,0s-.59.5-1,.87l-.54.49-7.48,6.82a2.09,2.09,0,0,1-3.48-1.51V27.64H9.91a5.84,5.84,0,0,0-5.83,5.8v23a5.75,5.75,0,0,0,5.83,5.69H39.45a2,2,0,0,1,1.36.58l6.1,5.62V48.9a2,2,0,0,1,4.08,0v24a2,2,0,0,1-1.2,1.85,2,2,0,0,1-.81.16,2.06,2.06,0,0,1-1.38-.55l-8.94-8.2H9.91A9.84,9.84,0,0,1,0,56.4v-23a9.93,9.93,0,0,1,9.91-9.88H31.27V9.8A9.89,9.89,0,0,1,41.21,0H72.46A9.77,9.77,0,0,1,82.25,9.8Zm-4.08,0a5.68,5.68,0,0,0-5.71-5.72H41.21A5.81,5.81,0,0,0,35.35,9.8V44.64l4.1-3.71c.19-.17.4-.33.56-.48,1.87-1.73,2.35-2,4.79-2H72.46a5.72,5.72,0,0,0,5.71-5.77V9.8Z"/></g></g></svg>