<svg xmlns="http://www.w3.org/2000/svg" viewBox="0 0 2120.76 502.2"><defs><style>.cls-1{fill:#fe266e;}</style></defs><title>Recurso 2</title><g id="Capa_2" data-name="Capa 2"><g id="Capa_1-2" data-name="Capa 1"><g id="Capa_2-2" data-name="Capa 2"><g id="Capa_1-2-2" data-name="Capa 1-2"><path class="cls-1" d="M2120.76,502.2s-1.5-20.75-1.25-38.5L2116,6.62a10.87,10.87,0,0,0-8.1,4.57C2093.15,32,2012.35,119.81,1741.51,31c-194.6-63.8-586-16-660,26s-266,76-537,0C291-14.08,90,110,65.11,126.27a10.87,10.87,0,0,0-3.88,4.47L1,258.78a10.88,10.88,0,0,0-.83,6.74L12.35,439.78a11.24,11.24,0,0,1-1.91,8.76h0c-1.66,2.31-.51,26.59-.09,29.41Z"/></g></g></g></g></svg>